<?xml version="1.0" encoding="UTF-8"?>
<!DOCTYPE svg PUBLIC "-//W3C//DTD SVG 1.1//EN" "http://www.w3.org/Graphics/SVG/1.1/DTD/svg11.dtd">
<svg xmlns="http://www.w3.org/2000/svg" version="1.1" width="500px" height="500px" style="shape-rendering:geometricPrecision; text-rendering:geometricPrecision; image-rendering:optimizeQuality; fill-rule:evenodd; clip-rule:evenodd" xmlns:xlink="http://www.w3.org/1999/xlink">
<g><path style="opacity:0.89" fill="#e9cc93" d="M 360.5,82.5 C 296.678,44.8131 230.678,40.6465 162.5,70C 107.743,97.3569 72.243,140.524 56,199.5C 53.5859,206.597 52.7526,213.764 53.5,221C 52.0835,223.983 51.2501,227.15 51,230.5C 50.2418,249.87 50.7418,269.204 52.5,288.5C 39.7939,214.118 60.7939,150.952 115.5,99C 173.951,51.2424 239.618,37.9091 312.5,59C 329.79,64.4795 345.79,72.3128 360.5,82.5 Z"/></g>
<g><path style="opacity:0.051" fill="#edd29c" d="M 360.5,82.5 C 386.645,98.9773 407.312,120.644 422.5,147.5C 405.963,121.961 385.296,100.295 360.5,82.5 Z"/></g>
<g><path style="opacity:1" fill="#d5ae60" d="M 360.5,82.5 C 385.296,100.295 405.963,121.961 422.5,147.5C 435.559,167.973 443.893,190.307 447.5,214.5C 449.429,234.965 450.096,255.298 449.5,275.5C 447.962,287.207 445.296,298.541 441.5,309.5C 435.711,322.84 429.711,336.173 423.5,349.5C 423.25,351.674 422.25,353.341 420.5,354.5C 404.581,377.087 385.581,396.754 363.5,413.5C 338.09,429.863 310.424,440.696 280.5,446C 256.095,448.08 231.761,447.58 207.5,444.5C 196.841,441.356 186.174,437.856 175.5,434C 168.487,430.16 161.154,426.993 153.5,424.5C 144.041,418.212 134.707,411.712 125.5,405C 121.701,402.203 118.201,399.036 115,395.5C 115.419,393.689 116.419,392.022 118,390.5C 121.312,392.645 124.146,395.312 126.5,398.5C 128.528,399.549 130.528,400.549 132.5,401.5C 161.019,422.57 193.019,435.237 228.5,439.5C 230.407,441.243 232.741,442.243 235.5,442.5C 244.955,444.496 254.455,444.829 264,443.5C 267.289,443.692 270.456,444.359 273.5,445.5C 275.136,444.696 276.636,443.696 278,442.5C 279.558,443.345 280.558,442.679 281,440.5C 282.388,441.554 283.888,441.72 285.5,441C 283.699,440.683 283.366,440.016 284.5,439C 292.457,437.581 300.457,435.915 308.5,434C 311.557,433.084 314.224,431.584 316.5,429.5C 387.368,400.152 428.868,347.485 441,271.5C 446.751,187.489 413.918,123.989 342.5,81C 332.808,75.9842 322.808,71.8175 312.5,68.5C 309.233,66.0125 305.566,64.1791 301.5,63C 293.952,61.1595 286.285,59.8261 278.5,59C 275.488,58.2196 272.655,57.0529 270,55.5C 251.858,56.1898 233.691,57.3564 215.5,59C 213.685,59.7568 212.019,60.5902 210.5,61.5C 143.45,77.5099 96.4503,117.177 69.5,180.5C 67.8732,182.574 66.3732,184.907 65,187.5C 61.5199,199.401 58.8533,211.401 57,223.5C 56.1725,238.006 56.3392,252.339 57.5,266.5C 57.5,266.833 57.5,267.167 57.5,267.5C 58.6899,282.745 61.3566,297.745 65.5,312.5C 67.3363,316.119 69.3363,319.453 71.5,322.5C 82.1913,346.544 96.858,367.877 115.5,386.5C 115.577,389.012 114.577,391.012 112.5,392.5C 105.778,387.102 99.4442,381.436 93.5,375.5C 93.5,375.167 93.5,374.833 93.5,374.5C 82.9314,360.077 73.7647,344.743 66,328.5C 63.9241,321.366 61.0907,314.7 57.5,308.5C 55.0193,302.054 53.3526,295.387 52.5,288.5C 50.7418,269.204 50.2418,249.87 51,230.5C 51.2501,227.15 52.0835,223.983 53.5,221C 52.7526,213.764 53.5859,206.597 56,199.5C 72.243,140.524 107.743,97.3569 162.5,70C 230.678,40.6465 296.678,44.8131 360.5,82.5 Z"/></g>
<g><path style="opacity:1" fill="#0e0d0c" d="M 312.5,68.5 C 322.808,71.8175 332.808,75.9842 342.5,81C 413.918,123.989 446.751,187.489 441,271.5C 428.868,347.485 387.368,400.152 316.5,429.5C 300.865,434.575 284.865,438.075 268.5,440C 255.148,440.715 241.815,440.548 228.5,439.5C 193.019,435.237 161.019,422.57 132.5,401.5C 127.156,396.157 121.489,391.157 115.5,386.5C 96.858,367.877 82.1913,346.544 71.5,322.5C 65.0414,304.512 60.3747,286.179 57.5,267.5C 57.5,267.167 57.5,266.833 57.5,266.5C 57.2634,251.141 57.7634,235.808 59,220.5C 61.5656,206.904 65.0656,193.57 69.5,180.5C 96.4503,117.177 143.45,77.5099 210.5,61.5C 245.086,55.7039 279.086,58.0372 312.5,68.5 Z"/></g>
<g><path style="opacity:1" fill="#c8b177" d="M 247.5,101.5 C 246.43,107.742 242.93,112.076 237,114.5C 236.517,115.448 236.351,116.448 236.5,117.5C 232.181,116.965 227.848,116.465 223.5,116C 228.464,114.76 233.464,113.427 238.5,112C 242.801,109.532 245.801,106.032 247.5,101.5 Z"/></g>
<g><path style="opacity:1" fill="#d4b474" d="M 248.5,94.5 C 249.167,94.5 249.833,94.5 250.5,94.5C 252.413,108.312 260.413,115.478 274.5,116C 268.627,115.739 263.294,117.239 258.5,120.5C 258.5,117.833 258.5,115.167 258.5,112.5C 255.896,111.549 253.396,111.215 251,111.5C 250.5,111.167 250,110.833 249.5,110.5C 250.689,109.571 252.022,109.238 253.5,109.5C 251.84,105.504 250.174,101.504 248.5,97.5C 248.5,96.5 248.5,95.5 248.5,94.5 Z"/></g>
<g><path style="opacity:1" fill="#debb66" d="M 248.5,97.5 C 250.174,101.504 251.84,105.504 253.5,109.5C 252.022,109.238 250.689,109.571 249.5,110.5C 250,110.833 250.5,111.167 251,111.5C 253.396,111.215 255.896,111.549 258.5,112.5C 258.5,115.167 258.5,117.833 258.5,120.5C 253.714,124.74 251.047,130.073 250.5,136.5C 249.833,135.833 249.167,135.167 248.5,134.5C 246.833,127.169 242.833,121.502 236.5,117.5C 236.351,116.448 236.517,115.448 237,114.5C 242.93,112.076 246.43,107.742 247.5,101.5C 247.232,99.901 247.566,98.5676 248.5,97.5 Z"/></g>
<g><path style="opacity:1" fill="#6c6650" d="M 250.5,94.5 C 249.833,94.5 249.167,94.5 248.5,94.5C 249.167,86.5 249.833,86.5 250.5,94.5 Z"/></g>
<g><path style="opacity:1" fill="#c4a56b" d="M 312.5,68.5 C 279.086,58.0372 245.086,55.7039 210.5,61.5C 212.019,60.5902 213.685,59.7568 215.5,59C 233.691,57.3564 251.858,56.1898 270,55.5C 272.655,57.0529 275.488,58.2196 278.5,59C 286.285,59.8261 293.952,61.1595 301.5,63C 305.566,64.1791 309.233,66.0125 312.5,68.5 Z"/></g>
<g><path style="opacity:1" fill="#706758" d="M 248.5,134.5 C 249.167,135.167 249.833,135.833 250.5,136.5C 250.799,138.604 250.466,140.604 249.5,142.5C 248.52,139.914 248.187,137.247 248.5,134.5 Z"/></g>
<g><path style="opacity:1" fill="#bfa36c" d="M 140.5,171.5 C 139.503,171.53 138.836,171.03 138.5,170C 135.806,164.35 135.139,158.516 136.5,152.5C 129.468,152.17 122.468,152.503 115.5,153.5C 116.347,154.845 117.513,155.845 119,156.5C 120.182,160.188 121.348,163.855 122.5,167.5C 119.681,159.352 114.014,154.352 105.5,152.5C 105.833,152.167 106.167,151.833 106.5,151.5C 118.801,150.187 131.134,150.187 143.5,151.5C 137.798,154.033 135.965,158.366 138,164.5C 138.744,166.9 139.577,169.233 140.5,171.5 Z"/></g>
<g><path style="opacity:1" fill="#d2af63" d="M 188.5,163.5 C 186.833,166.172 185.166,168.839 183.5,171.5C 182.833,166.683 182.166,162.017 181.5,157.5C 181.631,156.761 181.464,156.094 181,155.5C 178.704,153.943 176.538,152.276 174.5,150.5C 183.81,149.502 193.143,149.168 202.5,149.5C 202.5,150.5 202.5,151.5 202.5,152.5C 195.552,153.303 190.885,156.969 188.5,163.5 Z"/></g>
<g><path style="opacity:1" fill="#d6ad5c" d="M 307.5,176.5 C 307.5,176.833 307.5,177.167 307.5,177.5C 309.689,181.926 311.022,186.759 311.5,192C 311.129,194.856 310.629,197.689 310,200.5C 307.774,202.285 306.608,204.618 306.5,207.5C 303.152,208.076 300.485,209.076 298.5,210.5C 298.582,213.585 297.082,215.252 294,215.5C 292.624,215.316 291.791,214.649 291.5,213.5C 294.411,212.59 296.411,210.59 297.5,207.5C 298.325,206.614 299.325,206.281 300.5,206.5C 300.5,201.5 300.5,196.5 300.5,191.5C 302.824,191.338 304.491,190.172 305.5,188C 304.351,186.256 303.017,186.089 301.5,187.5C 299.676,184.56 299.009,181.56 299.5,178.5C 297.638,176.352 296.471,174.018 296,171.5C 296.804,172.804 297.971,173.471 299.5,173.5C 305.895,173.522 311.395,171.522 316,167.5C 316.497,170.146 316.664,172.813 316.5,175.5C 312.704,175.162 309.704,175.495 307.5,176.5 Z"/></g>
<g><path style="opacity:1" fill="#cbad6e" d="M 237.5,175.5 C 234.389,173.778 231.055,172.944 227.5,173C 229.16,174.488 230.16,176.321 230.5,178.5C 221.954,171.527 213.954,172.193 206.5,180.5C 206.328,178.508 206.995,176.842 208.5,175.5C 208,175.167 207.5,174.833 207,174.5C 205.2,175.32 203.366,175.986 201.5,176.5C 209.295,169.926 218.295,167.759 228.5,170C 231.898,171.357 234.898,173.19 237.5,175.5 Z"/></g>
<g><path style="opacity:1" fill="#ccad6d" d="M 371.5,180.5 C 368.459,180.594 366.793,179.094 366.5,176C 357.546,171.215 348.213,170.382 338.5,173.5C 357.174,172.161 364.84,180.495 361.5,198.5C 362.817,178.296 354.151,171.796 335.5,179C 331.956,182.375 328.623,185.875 325.5,189.5C 325.209,179.917 329.875,173.75 339.5,171C 351.646,167.163 362.146,169.663 371,178.5C 371.464,179.094 371.631,179.761 371.5,180.5 Z"/></g>
<g><path style="opacity:1" fill="#0f0e0b" d="M 291.5,213.5 C 288.296,214.96 284.962,215.46 281.5,215C 278.172,213.521 275.506,211.355 273.5,208.5C 270.978,201.403 269.978,194.069 270.5,186.5C 271.715,180.108 275.382,175.608 281.5,173C 291.253,172.742 296.753,177.575 298,187.5C 300.194,197.393 298.027,206.059 291.5,213.5 Z"/></g>
<g><path style="opacity:1" fill="#cdab67" d="M 307.5,176.5 C 309.704,175.495 312.704,175.162 316.5,175.5C 316.664,172.813 316.497,170.146 316,167.5C 311.395,171.522 305.895,173.522 299.5,173.5C 297.971,173.471 296.804,172.804 296,171.5C 296.471,174.018 297.638,176.352 299.5,178.5C 299.009,181.56 299.676,184.56 301.5,187.5C 303.017,186.089 304.351,186.256 305.5,188C 304.491,190.172 302.824,191.338 300.5,191.5C 300.5,196.5 300.5,201.5 300.5,206.5C 299.325,206.281 298.325,206.614 297.5,207.5C 296.411,210.59 294.411,212.59 291.5,213.5C 298.027,206.059 300.194,197.393 298,187.5C 296.753,177.575 291.253,172.742 281.5,173C 275.382,175.608 271.715,180.108 270.5,186.5C 271.362,182.062 272.695,177.728 274.5,173.5C 270.846,173.5 267.513,174.5 264.5,176.5C 267.823,173.317 271.823,171.15 276.5,170C 287.178,169.684 297.844,169.684 308.5,170C 312.843,168.99 316.01,166.49 318,162.5C 318.755,167.95 318.255,173.283 316.5,178.5C 313.788,176.74 310.788,176.073 307.5,176.5 Z"/></g>
<g><path style="opacity:1" fill="#110e0a" d="M 230.5,178.5 C 232.94,184.595 234.274,190.928 234.5,197.5C 223.833,197.5 213.167,197.5 202.5,197.5C 202.818,191.574 204.151,185.907 206.5,180.5C 213.954,172.193 221.954,171.527 230.5,178.5 Z"/></g>
<g><path style="opacity:1" fill="#d8ae5c" d="M 140.5,171.5 C 141.234,172.708 141.567,174.041 141.5,175.5C 140.659,177.379 140.325,179.379 140.5,181.5C 143.488,181.155 144.821,182.488 144.5,185.5C 144.314,187.58 143.314,189.08 141.5,190C 143.135,191.748 145.135,192.915 147.5,193.5C 146.926,195.059 146.26,196.559 145.5,198C 146.865,199.682 148.365,199.849 150,198.5C 152.686,202.92 154.186,207.754 154.5,213C 151.97,216.481 152.303,219.815 155.5,223C 154.354,223.645 153.354,224.478 152.5,225.5C 151.457,223.217 150.791,221.217 150.5,219.5C 149.833,220.833 149.167,222.167 148.5,223.5C 148.167,221.5 147.833,219.5 147.5,217.5C 146.155,216.653 145.155,215.487 144.5,214C 143.552,213.517 142.552,213.351 141.5,213.5C 141.318,211.409 141.652,209.409 142.5,207.5C 138.395,205.057 136.228,201.39 136,196.5C 135.329,195.748 134.496,195.414 133.5,195.5C 129.833,186.167 126.167,176.833 122.5,167.5C 121.348,163.855 120.182,160.188 119,156.5C 117.513,155.845 116.347,154.845 115.5,153.5C 122.468,152.503 129.468,152.17 136.5,152.5C 135.139,158.516 135.806,164.35 138.5,170C 138.836,171.03 139.503,171.53 140.5,171.5 Z"/></g>
<g><path style="opacity:1" fill="#c8ab6d" d="M 181.5,157.5 C 182.166,162.017 182.833,166.683 183.5,171.5C 185.166,168.839 186.833,166.172 188.5,163.5C 181.125,183.64 172.792,203.306 163.5,222.5C 163.843,220.517 163.176,219.183 161.5,218.5C 168.487,203.521 174.654,188.188 180,172.5C 181.25,167.58 181.75,162.58 181.5,157.5 Z"/></g>
<g><path style="opacity:1" fill="#d7ac5b" d="M 371.5,180.5 C 372.446,198.472 372.779,216.472 372.5,234.5C 376.956,234.393 377.956,235.893 375.5,239C 375.833,239.333 376.167,239.667 376.5,240C 373.783,241.033 371.949,240.2 371,237.5C 369.301,238.406 367.467,238.739 365.5,238.5C 364.399,234.943 363.065,231.443 361.5,228C 362.152,219.487 362.819,210.987 363.5,202.5C 363.043,201.702 362.376,201.369 361.5,201.5C 361.5,200.5 361.5,199.5 361.5,198.5C 364.84,180.495 357.174,172.161 338.5,173.5C 348.213,170.382 357.546,171.215 366.5,176C 366.793,179.094 368.459,180.594 371.5,180.5 Z"/></g>
<g><path style="opacity:1" fill="#c8ac71" d="M 69.5,180.5 C 65.0656,193.57 61.5656,206.904 59,220.5C 57.7634,235.808 57.2634,251.141 57.5,266.5C 56.3392,252.339 56.1725,238.006 57,223.5C 58.8533,211.401 61.5199,199.401 65,187.5C 66.3732,184.907 67.8732,182.574 69.5,180.5 Z"/></g>
<g><path style="opacity:1" fill="#110e0a" d="M 361.5,201.5 C 361.941,210.276 361.441,218.942 360,227.5C 355.189,233.272 349.022,235.606 341.5,234.5C 335.52,229.945 333.52,223.945 335.5,216.5C 342.556,208.964 351.223,203.964 361.5,201.5 Z"/></g>
<g><path style="opacity:1" fill="#d5ad60" d="M 270.5,186.5 C 269.978,194.069 270.978,201.403 273.5,208.5C 274.413,210.086 274.413,211.586 273.5,213C 275.384,213.216 277.051,213.883 278.5,215C 277.5,215.167 276.5,215.333 275.5,215.5C 271.755,214.163 268.089,212.829 264.5,211.5C 259.057,207.032 256.391,201.199 256.5,194C 256.105,186.631 258.772,180.798 264.5,176.5C 267.513,174.5 270.846,173.5 274.5,173.5C 272.695,177.728 271.362,182.062 270.5,186.5 Z"/></g>
<g><path style="opacity:1" fill="#caac6e" d="M 361.5,198.5 C 361.5,199.5 361.5,200.5 361.5,201.5C 351.223,203.964 342.556,208.964 335.5,216.5C 336.038,214.883 336.371,213.216 336.5,211.5C 334.097,211.448 331.764,211.781 329.5,212.5C 330.574,211.115 331.907,209.949 333.5,209C 342.625,204.888 351.959,201.388 361.5,198.5 Z"/></g>
<g><path style="opacity:1" fill="#caaa6a" d="M 307.5,177.5 C 311.406,181.039 313.073,185.539 312.5,191C 311.211,208.622 301.711,217.789 284,218.5C 279.204,217.09 274.704,217.59 270.5,220C 266.209,223.464 266.542,226.131 271.5,228C 280.183,228.868 288.849,229.868 297.5,231C 304.863,231.931 311.029,235.098 316,240.5C 318.39,247.277 316.89,252.943 311.5,257.5C 312.339,254.313 313.672,251.313 315.5,248.5C 314.378,239.876 309.378,234.709 300.5,233C 289.853,232.403 279.353,230.903 269,228.5C 266.276,229.838 265.109,228.838 265.5,225.5C 263.833,225.5 262.167,225.5 260.5,225.5C 261.847,228.84 263.18,232.174 264.5,235.5C 263.448,235.351 262.448,235.517 261.5,236C 263.713,236.626 265.88,236.459 268,235.5C 269.826,236.01 269.993,236.844 268.5,238C 269.737,238.232 270.737,238.732 271.5,239.5C 262.588,240.72 257.754,237.053 257,228.5C 260.356,223.316 264.856,219.316 270.5,216.5C 268.059,215.291 266.059,213.624 264.5,211.5C 268.089,212.829 271.755,214.163 275.5,215.5C 276.5,215.333 277.5,215.167 278.5,215C 277.051,213.883 275.384,213.216 273.5,213C 274.413,211.586 274.413,210.086 273.5,208.5C 275.506,211.355 278.172,213.521 281.5,215C 284.962,215.46 288.296,214.96 291.5,213.5C 291.791,214.649 292.624,215.316 294,215.5C 297.082,215.252 298.582,213.585 298.5,210.5C 300.485,209.076 303.152,208.076 306.5,207.5C 306.608,204.618 307.774,202.285 310,200.5C 310.629,197.689 311.129,194.856 311.5,192C 311.022,186.759 309.689,181.926 307.5,177.5 Z"/></g>
<g><path style="opacity:1" fill="#d3ae63" d="M 141.5,175.5 C 148.172,189.521 154.338,203.855 160,218.5C 160.69,219.738 161.19,219.738 161.5,218.5C 163.176,219.183 163.843,220.517 163.5,222.5C 161.302,228.586 158.802,234.586 156,240.5C 155.282,241.451 154.449,241.617 153.5,241C 146.157,226.146 139.491,210.98 133.5,195.5C 134.496,195.414 135.329,195.748 136,196.5C 136.228,201.39 138.395,205.057 142.5,207.5C 141.652,209.409 141.318,211.409 141.5,213.5C 142.552,213.351 143.552,213.517 144.5,214C 145.155,215.487 146.155,216.653 147.5,217.5C 147.833,219.5 148.167,221.5 148.5,223.5C 149.167,222.167 149.833,220.833 150.5,219.5C 150.791,221.217 151.457,223.217 152.5,225.5C 153.354,224.478 154.354,223.645 155.5,223C 152.303,219.815 151.97,216.481 154.5,213C 154.186,207.754 152.686,202.92 150,198.5C 148.365,199.849 146.865,199.682 145.5,198C 146.26,196.559 146.926,195.059 147.5,193.5C 145.135,192.915 143.135,191.748 141.5,190C 143.314,189.08 144.314,187.58 144.5,185.5C 144.821,182.488 143.488,181.155 140.5,181.5C 140.325,179.379 140.659,177.379 141.5,175.5 Z"/></g>
<g><path style="opacity:1" fill="#d2ae64" d="M 237.5,175.5 C 244.539,182.6 247.873,191.267 247.5,201.5C 232.5,201.5 217.5,201.5 202.5,201.5C 200.858,213.129 204.191,222.962 212.5,231C 224.322,236.795 234.656,234.795 243.5,225C 244.332,224.312 244.998,224.479 245.5,225.5C 238.058,238.828 226.725,243.995 211.5,241C 205.667,239.826 200.834,236.993 197,232.5C 185.686,216.76 184.686,200.427 194,183.5C 195.736,180.261 198.236,177.927 201.5,176.5C 203.366,175.986 205.2,175.32 207,174.5C 207.5,174.833 208,175.167 208.5,175.5C 206.995,176.842 206.328,178.508 206.5,180.5C 204.151,185.907 202.818,191.574 202.5,197.5C 213.167,197.5 223.833,197.5 234.5,197.5C 234.274,190.928 232.94,184.595 230.5,178.5C 230.16,176.321 229.16,174.488 227.5,173C 231.055,172.944 234.389,173.778 237.5,175.5 Z"/></g>
<g><path style="opacity:1" fill="#d3ad5f" d="M 335.5,216.5 C 333.52,223.945 335.52,229.945 341.5,234.5C 343.598,235.935 345.931,237.102 348.5,238C 343.766,239.437 339.1,240.604 334.5,241.5C 323.089,238.025 318.922,230.358 322,218.5C 324.106,215.882 326.606,213.882 329.5,212.5C 331.764,211.781 334.097,211.448 336.5,211.5C 336.371,213.216 336.038,214.883 335.5,216.5 Z"/></g>
<g><path style="opacity:1" fill="#c5a96b" d="M 371.5,180.5 C 372.793,181.842 373.626,183.509 374,185.5C 374.333,200.167 374.667,214.833 375,229.5C 375.346,231.848 376.513,233.681 378.5,235C 381.308,235.238 383.974,234.904 386.5,234C 382.52,240.22 376.853,242.554 369.5,241C 367.934,240.392 366.6,239.558 365.5,238.5C 367.467,238.739 369.301,238.406 371,237.5C 371.949,240.2 373.783,241.033 376.5,240C 376.167,239.667 375.833,239.333 375.5,239C 377.956,235.893 376.956,234.393 372.5,234.5C 372.779,216.472 372.446,198.472 371.5,180.5 Z"/></g>
<g><path style="opacity:1" fill="#d6ad5b" d="M 311.5,257.5 C 306.643,256.855 305.31,254.189 307.5,249.5C 306.421,247.42 304.755,246.087 302.5,245.5C 300.167,244.833 297.833,244.167 295.5,243.5C 293.275,241.637 290.608,240.637 287.5,240.5C 282.519,239.835 277.519,239.502 272.5,239.5C 272.167,239.5 271.833,239.5 271.5,239.5C 270.737,238.732 269.737,238.232 268.5,238C 269.993,236.844 269.826,236.01 268,235.5C 265.88,236.459 263.713,236.626 261.5,236C 262.448,235.517 263.448,235.351 264.5,235.5C 263.18,232.174 261.847,228.84 260.5,225.5C 262.167,225.5 263.833,225.5 265.5,225.5C 265.109,228.838 266.276,229.838 269,228.5C 279.353,230.903 289.853,232.403 300.5,233C 309.378,234.709 314.378,239.876 315.5,248.5C 313.672,251.313 312.339,254.313 311.5,257.5 Z"/></g>
<g><path style="opacity:1" fill="#c6a96b" d="M 361.5,201.5 C 362.376,201.369 363.043,201.702 363.5,202.5C 362.819,210.987 362.152,219.487 361.5,228C 363.065,231.443 364.399,234.943 365.5,238.5C 363.254,236.351 361.754,233.684 361,230.5C 354.193,238.985 345.359,242.652 334.5,241.5C 339.1,240.604 343.766,239.437 348.5,238C 345.931,237.102 343.598,235.935 341.5,234.5C 349.022,235.606 355.189,233.272 360,227.5C 361.441,218.942 361.941,210.276 361.5,201.5 Z"/></g>
<g><path style="opacity:0.65" fill="#e8cc96" d="M 447.5,214.5 C 451.613,234.593 452.28,254.926 449.5,275.5C 450.096,255.298 449.429,234.965 447.5,214.5 Z"/></g>
<g><path style="opacity:1" fill="#0f0d0b" d="M 295.5,243.5 C 297.833,244.167 300.167,244.833 302.5,245.5C 306.756,250.623 306.423,255.456 301.5,260C 292.816,263.372 283.816,264.372 274.5,263C 263.809,260.299 261.142,254.299 266.5,245C 270.252,242.519 274.419,241.352 279,241.5C 284.526,242.028 290.026,242.694 295.5,243.5 Z"/></g>
<g><path style="opacity:1" fill="#c5a771" d="M 272.5,239.5 C 277.519,239.502 282.519,239.835 287.5,240.5C 290.608,240.637 293.275,241.637 295.5,243.5C 290.026,242.694 284.526,242.028 279,241.5C 274.419,241.352 270.252,242.519 266.5,245C 261.142,254.299 263.809,260.299 274.5,263C 283.816,264.372 292.816,263.372 301.5,260C 306.423,255.456 306.756,250.623 302.5,245.5C 304.755,246.087 306.421,247.42 307.5,249.5C 305.31,254.189 306.643,256.855 311.5,257.5C 306.959,261.607 301.626,264.44 295.5,266C 285.032,267.055 274.699,266.388 264.5,264C 260.581,262.46 257.081,260.293 254,257.5C 253.333,255.167 253.333,252.833 254,250.5C 254.708,249.619 255.542,248.953 256.5,248.5C 260.345,243.91 265.345,241.41 271.5,241C 272.056,240.617 272.389,240.117 272.5,239.5 Z"/></g>
<g><path style="opacity:1" fill="#d4ae59" d="M 256.5,248.5 C 258.466,247.559 260.466,246.559 262.5,245.5C 262.833,245.833 263.167,246.167 263.5,246.5C 261.675,251.623 262.342,256.29 265.5,260.5C 260.27,261.235 256.603,259.068 254.5,254C 255.32,252.2 255.986,250.366 256.5,248.5 Z"/></g>
<g><path style="opacity:1" fill="#edeae1" d="M 178.5,252.5 C 186.174,252.334 193.841,252.5 201.5,253C 205.705,254.68 210.038,255.847 214.5,256.5C 215.473,262.184 215.473,267.85 214.5,273.5C 205.17,254.512 191.503,250.679 173.5,262C 168.572,267.687 165.072,274.187 163,281.5C 162.333,290.5 162.333,299.5 163,308.5C 170.032,330.263 184.198,336.763 205.5,328C 208.87,324.965 211.87,321.632 214.5,318C 215.483,317.409 216.15,317.743 216.5,319C 215.228,322.923 213.728,326.756 212,330.5C 195.743,338.653 179.576,338.487 163.5,330C 152.04,321.647 146.706,310.314 147.5,296C 147.677,274.111 158.011,259.611 178.5,252.5 Z"/></g>
<g><path style="opacity:1" fill="#c4a86e" d="M 57.5,267.5 C 60.3747,286.179 65.0414,304.512 71.5,322.5C 69.3363,319.453 67.3363,316.119 65.5,312.5C 61.3566,297.745 58.6899,282.745 57.5,267.5 Z"/></g>
<g><path style="opacity:1" fill="#eeebe3" d="M 239.5,277.5 C 243.846,277.334 248.179,277.501 252.5,278C 258.159,278.996 261.993,282.162 264,287.5C 264.333,300.167 264.667,312.833 265,325.5C 266.978,329.87 269.811,330.536 273.5,327.5C 273.833,327.833 274.167,328.167 274.5,328.5C 270.949,334.075 265.949,335.908 259.5,334C 256.96,331.795 254.793,329.295 253,326.5C 246.815,334.002 238.981,336.502 229.5,334C 222.93,330.345 220.763,324.845 223,317.5C 224.141,315.391 225.641,313.558 227.5,312C 235.859,306.819 244.859,303.319 254.5,301.5C 255.59,294.832 253.924,288.999 249.5,284C 239.906,280.464 232.572,283.131 227.5,292C 226.668,292.688 226.002,292.521 225.5,291.5C 227.246,283.754 231.913,279.087 239.5,277.5 Z"/></g>
<g><path style="opacity:1" fill="#eeebe2" d="M 301.5,333.5 C 292.983,333.826 284.65,333.493 276.5,332.5C 279.292,332.548 281.125,331.215 282,328.5C 282.667,314.5 282.667,300.5 282,286.5C 280.552,284.106 278.386,282.606 275.5,282C 281.503,280.797 287.503,279.63 293.5,278.5C 293.335,282.182 293.501,285.848 294,289.5C 295.979,285.044 298.813,281.21 302.5,278C 305.03,276.578 307.697,276.245 310.5,277C 312.248,281.294 312.915,285.794 312.5,290.5C 309.231,289.074 306.065,287.407 303,285.5C 298.905,286.386 295.905,288.719 294,292.5C 293.333,304.5 293.333,316.5 294,328.5C 294.374,329.416 294.874,330.25 295.5,331C 297.611,331.845 299.611,332.678 301.5,333.5 Z"/></g>
<g><path style="opacity:1" fill="#eeebe2" d="M 329.5,277.5 C 337.259,277.268 344.925,277.935 352.5,279.5C 353.423,283.861 353.423,288.194 352.5,292.5C 349.756,288.249 346.422,284.415 342.5,281C 329.98,277.186 325.147,281.686 328,294.5C 329.41,295.787 330.91,296.954 332.5,298C 338.701,300.286 344.701,302.953 350.5,306C 359.74,319.873 356.407,329.539 340.5,335C 332.406,336.191 324.739,335.024 317.5,331.5C 315.192,317.289 317.026,315.956 323,327.5C 330.405,334.099 337.739,334.099 345,327.5C 346.426,322.243 345.259,317.743 341.5,314C 334.961,311.379 328.627,308.379 322.5,305C 315.91,297.031 315.91,289.031 322.5,281C 324.925,279.787 327.259,278.621 329.5,277.5 Z"/></g>
<g><path style="opacity:1" fill="#141312" d="M 251.5,303.5 C 252.5,303.5 253.5,303.5 254.5,303.5C 254.83,309.868 254.496,316.202 253.5,322.5C 251.684,323.815 250.017,325.315 248.5,327C 238.094,330.895 233.261,327.395 234,316.5C 238.345,310.086 244.178,305.753 251.5,303.5 Z"/></g>
<g><path style="opacity:0.039" fill="#e6ca99" d="M 441.5,309.5 C 437.611,323.855 431.611,337.188 423.5,349.5C 429.711,336.173 435.711,322.84 441.5,309.5 Z"/></g>
<g><path style="opacity:1" fill="#8d8b86" d="M 276.5,332.5 C 284.65,333.493 292.983,333.826 301.5,333.5C 292.991,334.821 284.325,334.821 275.5,333.5C 275.624,332.893 275.957,332.56 276.5,332.5 Z"/></g>
<g><path style="opacity:0.259" fill="#dec591" d="M 57.5,308.5 C 61.0907,314.7 63.9241,321.366 66,328.5C 73.7647,344.743 82.9314,360.077 93.5,374.5C 76.8539,355.221 64.8539,333.221 57.5,308.5 Z"/></g>
<g><path style="opacity:1" fill="#77653b" d="M 259.5,355.5 C 261.099,355.232 262.432,355.566 263.5,356.5C 261.821,356.285 260.821,356.952 260.5,358.5C 256.5,358.5 252.5,358.5 248.5,358.5C 252.442,358.125 256.109,357.125 259.5,355.5 Z"/></g>
<g><path style="opacity:1" fill="#110d05" d="M 248.5,358.5 C 252.5,358.5 256.5,358.5 260.5,358.5C 269.742,360.358 278.742,363.025 287.5,366.5C 268.833,367.167 250.167,367.833 231.5,368.5C 228.813,368.664 226.146,368.497 223.5,368C 231.21,363.153 239.543,359.986 248.5,358.5 Z"/></g>
<g><path style="opacity:1" fill="#736441" d="M 287.5,366.5 C 288.756,366.461 289.756,366.961 290.5,368C 282.323,368.171 274.323,368.671 266.5,369.5C 262.5,368.167 258.5,368.167 254.5,369.5C 247.018,368.508 239.352,368.175 231.5,368.5C 250.167,367.833 268.833,367.167 287.5,366.5 Z"/></g>
<g><path style="opacity:1" fill="#c6ac76" d="M 263.5,356.5 C 278.334,360.711 293.001,365.545 307.5,371C 293.819,371.027 280.152,370.527 266.5,369.5C 274.323,368.671 282.323,368.171 290.5,368C 289.756,366.961 288.756,366.461 287.5,366.5C 278.742,363.025 269.742,360.358 260.5,358.5C 260.821,356.952 261.821,356.285 263.5,356.5 Z"/></g>
<g><path style="opacity:1" fill="#cab07b" d="M 259.5,355.5 C 256.109,357.125 252.442,358.125 248.5,358.5C 239.543,359.986 231.21,363.153 223.5,368C 226.146,368.497 228.813,368.664 231.5,368.5C 239.352,368.175 247.018,368.508 254.5,369.5C 236.853,370.86 219.186,372.027 201.5,373C 197.421,374.537 193.421,376.371 189.5,378.5C 189.167,378.167 188.833,377.833 188.5,377.5C 197.4,370.036 207.733,366.869 219.5,368C 231.289,358.904 244.622,354.737 259.5,355.5 Z"/></g>
<g><path style="opacity:1" fill="#c6ae7e" d="M 102.5,326.5 C 122.818,359.301 150.818,383.467 186.5,399C 184.212,398.947 181.879,398.614 179.5,398C 147.867,384.368 123.034,362.868 105,333.5C 103.589,331.35 102.755,329.016 102.5,326.5 Z"/></g>
<g><path style="opacity:1" fill="#c3ad80" d="M 395.5,326.5 C 396.097,326.735 396.43,327.235 396.5,328C 382.943,353.889 363.609,374.222 338.5,389C 333.167,391.667 327.833,394.333 322.5,397C 319.57,398.318 316.57,398.985 313.5,399C 349.187,384.139 376.52,359.972 395.5,326.5 Z"/></g>
<g><path style="opacity:1" fill="#c1b08e" d="M 207.5,380.5 C 210.85,380.335 214.183,380.502 217.5,381C 218.672,381.419 219.672,382.085 220.5,383C 214.911,381.987 209.411,382.487 204,384.5C 203.5,384.333 203,384.167 202.5,384C 204.346,382.97 206.013,381.804 207.5,380.5 Z"/></g>
<g><path style="opacity:1" fill="#c7b891" d="M 279.5,380.5 C 285.351,379.674 290.684,380.841 295.5,384C 289.928,383.142 284.262,382.475 278.5,382C 279.056,381.617 279.389,381.117 279.5,380.5 Z"/></g>
<g><path style="opacity:0.039" fill="#ead19b" d="M 420.5,354.5 C 405.925,378.409 386.925,398.075 363.5,413.5C 385.581,396.754 404.581,377.087 420.5,354.5 Z"/></g>
<g><path style="opacity:0.761" fill="#dfc58e" d="M 93.5,375.5 C 99.4442,381.436 105.778,387.102 112.5,392.5C 114.577,391.012 115.577,389.012 115.5,386.5C 121.489,391.157 127.156,396.157 132.5,401.5C 130.528,400.549 128.528,399.549 126.5,398.5C 124.146,395.312 121.312,392.645 118,390.5C 116.419,392.022 115.419,393.689 115,395.5C 118.201,399.036 121.701,402.203 125.5,405C 134.707,411.712 144.041,418.212 153.5,424.5C 130.474,411.972 110.474,395.638 93.5,375.5 Z"/></g>
<g><path style="opacity:0.875" fill="#e4ca93" d="M 153.5,424.5 C 161.154,426.993 168.487,430.16 175.5,434C 186.174,437.856 196.841,441.356 207.5,444.5C 188.187,441.168 170.187,434.502 153.5,424.5 Z"/></g>
<g><path style="opacity:1" fill="#cfaa67" d="M 316.5,429.5 C 314.224,431.584 311.557,433.084 308.5,434C 300.457,435.915 292.457,437.581 284.5,439C 283.366,440.016 283.699,440.683 285.5,441C 283.888,441.72 282.388,441.554 281,440.5C 280.558,442.679 279.558,443.345 278,442.5C 276.636,443.696 275.136,444.696 273.5,445.5C 270.456,444.359 267.289,443.692 264,443.5C 254.455,444.829 244.955,444.496 235.5,442.5C 232.741,442.243 230.407,441.243 228.5,439.5C 241.815,440.548 255.148,440.715 268.5,440C 284.865,438.075 300.865,434.575 316.5,429.5 Z"/></g>
<g><path style="opacity:0.734" fill="#e7c58e" d="M 363.5,413.5 C 341.021,429.73 316.021,440.563 288.5,446C 261.24,451.055 234.24,450.555 207.5,444.5C 231.761,447.58 256.095,448.08 280.5,446C 310.424,440.696 338.09,429.863 363.5,413.5 Z"/></g>
</svg>
